<svg xmlns="http://www.w3.org/2000/svg" xmlns:xlink="http://www.w3.org/1999/xlink" width="1080" zoomAndPan="magnify" viewBox="0 0 810 809.999993" height="1080" preserveAspectRatio="xMidYMid meet" version="1.2"><defs><clipPath id="5f1068f80c"><path d="M 123 92 L 503 92 L 503 496 L 123 496 Z M 123 92 "/></clipPath><clipPath id="29dbde3863"><path d="M 111.597656 196.007812 L 381.5625 80.816406 L 514.757812 392.964844 L 244.789062 508.15625 Z M 111.597656 196.007812 "/></clipPath><clipPath id="30f6697d18"><path d="M 146.777344 180.996094 L 346.382812 95.828125 C 355.714844 91.84375 366.242188 91.734375 375.65625 95.515625 C 385.070312 99.296875 392.59375 106.664062 396.574219 115.996094 L 499.480469 357.164062 C 503.460938 366.492188 503.574219 377.023438 499.789062 386.4375 C 496.007812 395.851562 488.640625 403.375 479.308594 407.355469 L 279.707031 492.527344 C 270.375 496.507812 259.84375 496.617188 250.429688 492.835938 C 241.019531 489.054688 233.492188 481.6875 229.511719 472.355469 L 126.609375 231.1875 C 122.628906 221.859375 122.515625 211.328125 126.296875 201.914062 C 130.082031 192.503906 137.449219 184.976562 146.777344 180.996094 Z M 146.777344 180.996094 "/></clipPath><clipPath id="768c689a24"><path d="M 264 112 L 569 112 L 569 536 L 264 536 Z M 264 112 "/></clipPath><clipPath id="d07c053498"><path d="M 263.519531 120.421875 L 556.894531 111.359375 L 569.777344 528.503906 L 276.398438 537.566406 Z M 263.519531 120.421875 "/></clipPath><clipPath id="7b170a7598"><path d="M 301.75 119.238281 L 518.664062 112.542969 C 528.800781 112.226562 538.652344 115.957031 546.042969 122.90625 C 553.433594 129.851562 557.761719 139.453125 558.074219 149.59375 L 568.566406 489.316406 C 568.878906 499.457031 565.152344 509.304688 558.203125 516.699219 C 551.253906 524.089844 541.65625 528.417969 531.515625 528.730469 L 314.601562 535.429688 C 304.460938 535.742188 294.613281 532.015625 287.222656 525.066406 C 279.832031 518.117188 275.503906 508.515625 275.191406 498.378906 L 264.699219 158.652344 C 264.386719 148.511719 268.113281 138.664062 275.0625 131.273438 C 282.011719 123.882812 291.609375 119.554688 301.75 119.238281 Z M 301.75 119.238281 "/></clipPath><clipPath id="783264bc9f"><path d="M 322 121 L 688 121 L 688 528 L 322 528 Z M 322 121 "/></clipPath><clipPath id="0805edada9"><path d="M 416.042969 112.140625 L 696.894531 197.429688 L 593.617188 537.523438 L 312.765625 452.234375 Z M 416.042969 112.140625 "/></clipPath><clipPath id="cc2ef7c315"><path d="M 452.644531 123.253906 L 660.296875 186.316406 C 670.003906 189.261719 678.140625 195.945312 682.921875 204.894531 C 687.699219 213.84375 688.730469 224.324219 685.78125 234.03125 L 605.007812 500.011719 C 602.058594 509.71875 595.375 517.855469 586.429688 522.636719 C 577.480469 527.414062 567 528.445312 557.292969 525.496094 L 349.640625 462.4375 C 339.933594 459.488281 331.796875 452.804688 327.015625 443.859375 C 322.238281 434.910156 321.207031 424.429688 324.15625 414.722656 L 404.929688 148.742188 C 407.875 139.035156 414.558594 130.894531 423.507812 126.117188 C 432.457031 121.335938 442.9375 120.308594 452.644531 123.253906 Z M 452.644531 123.253906 "/></clipPath></defs><g id="8f7f771c54"><g clip-rule="nonzero" clip-path="url(#5f1068f80c)"><g clip-rule="nonzero" clip-path="url(#29dbde3863)"><g clip-rule="nonzero" clip-path="url(#30f6697d18)"><path style=" stroke:none;fill-rule:nonzero;fill:#14537d;fill-opacity:1;" d="M 111.597656 196.007812 L 381.5625 80.816406 L 514.304688 391.910156 L 244.339844 507.101562 Z M 111.597656 196.007812 "/></g></g></g><g clip-rule="nonzero" clip-path="url(#768c689a24)"><g clip-rule="nonzero" clip-path="url(#d07c053498)"><g clip-rule="nonzero" clip-path="url(#7b170a7598)"><path style=" stroke:none;fill-rule:nonzero;fill:#3498db;fill-opacity:1;" d="M 263.519531 120.421875 L 556.894531 111.359375 L 569.742188 527.359375 L 276.363281 536.417969 Z M 263.519531 120.421875 "/></g></g></g><g clip-rule="nonzero" clip-path="url(#783264bc9f)"><g clip-rule="nonzero" clip-path="url(#0805edada9)"><g clip-rule="nonzero" clip-path="url(#cc2ef7c315)"><path style=" stroke:none;fill-rule:nonzero;fill:#14537d;fill-opacity:1;" d="M 416.042969 112.140625 L 696.894531 197.429688 L 593.949219 536.425781 L 313.097656 451.136719 Z M 416.042969 112.140625 "/></g></g></g><g style="fill:#14537d;fill-opacity:1;"><g transform="translate(67.950374, 556.432535)"><path style="stroke:none" d="M 60.734375 -192.234375 C 60.734375 -205.152344 65.210938 -215.980469 74.167969 -224.722656 C 82.992188 -233.339844 93.410156 -237.648438 105.417969 -237.648438 C 118.085938 -237.648438 128.324219 -233.390625 136.132812 -224.871094 C 143.5 -216.832031 147.183594 -207.046875 147.183594 -195.515625 C 147.183594 -184.265625 143.160156 -174.203125 135.105469 -165.324219 C 126.5625 -155.90625 115.453125 -151.195312 101.769531 -151.195312 C 89.804688 -151.195312 79.933594 -155.203125 72.160156 -163.210938 C 64.542969 -171.058594 60.734375 -180.734375 60.734375 -192.234375 Z M 99.035156 -192.234375 C 99.035156 -191.089844 99.238281 -190.304688 99.644531 -189.886719 C 99.898438 -189.628906 100.605469 -189.5 101.769531 -189.5 C 104.140625 -189.5 105.792969 -190.015625 106.734375 -191.054688 C 108.167969 -192.632812 108.882812 -194.121094 108.882812 -195.515625 C 108.882812 -197.117188 108.554688 -198.273438 107.898438 -198.992188 C 107.679688 -199.226562 106.855469 -199.347656 105.417969 -199.347656 C 103.808594 -199.347656 102.308594 -198.667969 100.921875 -197.316406 C 99.664062 -196.085938 99.035156 -194.394531 99.035156 -192.234375 Z M 115.085938 -192.234375 C 115.085938 -205.152344 119.5625 -215.980469 128.519531 -224.722656 C 137.34375 -233.339844 147.761719 -237.648438 159.769531 -237.648438 C 172.4375 -237.648438 182.675781 -233.390625 190.484375 -224.871094 C 197.851562 -216.832031 201.535156 -207.046875 201.535156 -195.515625 C 201.535156 -184.265625 197.507812 -174.203125 189.457031 -165.324219 C 180.914062 -155.90625 169.804688 -151.195312 156.121094 -151.195312 C 144.15625 -151.195312 134.285156 -155.203125 126.511719 -163.210938 C 118.894531 -171.058594 115.085938 -180.734375 115.085938 -192.234375 Z M 153.386719 -192.234375 C 153.386719 -191.089844 153.589844 -190.304688 153.996094 -189.886719 C 154.246094 -189.628906 154.957031 -189.5 156.121094 -189.5 C 158.488281 -189.5 160.144531 -190.015625 161.085938 -191.054688 C 162.519531 -192.632812 163.234375 -194.121094 163.234375 -195.515625 C 163.234375 -197.117188 162.90625 -198.273438 162.25 -198.992188 C 162.03125 -199.226562 161.207031 -199.347656 159.769531 -199.347656 C 158.160156 -199.347656 156.660156 -198.667969 155.273438 -197.316406 C 154.015625 -196.085938 153.386719 -194.394531 153.386719 -192.234375 Z M 236.898438 -90.28125 C 237.777344 -71.808594 234.570312 -54.761719 227.277344 -39.140625 C 220.183594 -23.933594 210.273438 -10.765625 197.550781 0.367188 C 185.070312 11.285156 170.792969 19.707031 154.71875 25.628906 C 138.71875 31.523438 122.164062 34.472656 105.054688 34.472656 C 89.046875 34.472656 73.703125 31.929688 59.03125 26.851562 C 43.953125 21.632812 30.777344 13.972656 19.5 3.867188 C 7.816406 -6.605469 -0.824219 -19.257812 -6.425781 -34.089844 C -12.125 -49.1875 -13.488281 -65.957031 -10.515625 -84.394531 C -8.425781 -97.828125 -3.71875 -110.449219 3.605469 -122.261719 C 11.09375 -134.335938 21.109375 -144.375 33.648438 -152.382812 C 46.277344 -160.449219 61.023438 -165.367188 77.878906 -167.140625 C 92.683594 -168.726562 109.445312 -168.742188 128.164062 -167.179688 C 145.488281 -165.738281 165.363281 -164.414062 187.789062 -163.207031 C 197.554688 -162.808594 203.90625 -163.015625 206.851562 -163.824219 L 235.371094 -171.667969 L 238.761719 -145.648438 C 239.441406 -140.453125 238.636719 -133.277344 236.347656 -124.117188 C 231.625 -104.550781 223.210938 -91.53125 211.109375 -85.0625 C 200.765625 -79.535156 187.527344 -77.402344 171.402344 -78.667969 C 155.984375 -79.890625 141.054688 -81.175781 126.621094 -82.519531 C 113.0625 -83.785156 100.847656 -84.246094 89.96875 -83.90625 C 81.257812 -83.632812 74.199219 -82.066406 68.792969 -79.199219 C 65.679688 -77.546875 63.503906 -74.417969 62.269531 -69.816406 C 61.292969 -66.101562 61.632812 -62.964844 63.292969 -60.410156 C 66.203125 -55.9375 70.84375 -52.042969 77.222656 -48.730469 C 84.792969 -44.796875 93.414062 -42.023438 103.09375 -40.410156 C 113 -38.761719 122.894531 -38.503906 132.785156 -39.636719 C 142.015625 -40.691406 150.167969 -43.128906 157.242188 -46.949219 C 162.726562 -49.90625 166.644531 -53.945312 168.996094 -59.0625 C 170.273438 -61.78125 171.1875 -64.679688 171.742188 -67.765625 C 172.441406 -71.664062 172.894531 -75.980469 173.101562 -80.714844 L 173.109375 -80.9375 L 173.125 -81.160156 C 173.6875 -89.59375 176.941406 -96.78125 182.886719 -102.726562 C 187.515625 -107.359375 192.800781 -110.699219 198.738281 -112.753906 C 205.707031 -115.167969 212.40625 -115.457031 218.832031 -113.617188 C 224.378906 -112.035156 228.796875 -108.953125 232.085938 -104.375 C 234.875 -100.496094 236.464844 -95.984375 236.863281 -90.835938 L 236.882812 -90.558594 Z M 198.640625 -88.457031 L 217.769531 -89.367188 L 198.671875 -87.898438 C 198.828125 -85.914062 199.597656 -83.953125 200.984375 -82.023438 C 202.878906 -79.390625 205.320312 -77.644531 208.3125 -76.792969 C 209.15625 -76.550781 209.960938 -76.453125 210.734375 -76.503906 C 210.949219 -76.515625 211.132812 -76.539062 211.289062 -76.574219 L 211.265625 -76.5625 C 210.878906 -76.425781 210.445312 -76.121094 209.96875 -75.644531 C 210.808594 -76.484375 211.265625 -77.472656 211.34375 -78.609375 L 192.234375 -79.882812 L 211.367188 -79.054688 C 211.085938 -72.601562 210.445312 -66.585938 209.441406 -61 C 208.292969 -54.597656 206.414062 -48.625 203.800781 -43.074219 C 197.882812 -30.195312 188.425781 -20.25 175.425781 -13.238281 C 164.023438 -7.085938 151.261719 -3.199219 137.144531 -1.582031 C 123.691406 -0.0429688 110.242188 -0.390625 96.796875 -2.632812 C 83.132812 -4.910156 70.722656 -8.945312 59.566406 -14.742188 C 47.21875 -21.15625 37.757812 -29.421875 31.179688 -39.535156 C 23.359375 -51.570312 21.390625 -64.972656 25.277344 -79.742188 C 29.390625 -95.078125 37.914062 -106.175781 50.851562 -113.035156 C 61.496094 -118.679688 74.132812 -121.730469 88.769531 -122.1875 C 101.238281 -122.578125 115.039062 -122.066406 130.175781 -120.65625 C 144.4375 -119.328125 159.175781 -118.058594 174.398438 -116.851562 C 183.078125 -116.167969 189.296875 -116.832031 193.054688 -118.84375 C 193.015625 -118.820312 192.988281 -118.808594 192.984375 -118.800781 C 193.058594 -118.859375 193.148438 -118.945312 193.257812 -119.058594 C 193.730469 -119.542969 194.230469 -120.242188 194.761719 -121.152344 C 196.429688 -124 197.902344 -128.082031 199.1875 -133.410156 C 199.875 -136.152344 200.339844 -138.386719 200.578125 -140.113281 C 200.660156 -140.691406 200.707031 -141.140625 200.71875 -141.464844 C 200.714844 -141.328125 200.734375 -141.074219 200.785156 -140.695312 L 200.238281 -144.890625 L 219.226562 -147.367188 L 224.304688 -128.902344 L 217.007812 -126.894531 C 210.226562 -125.03125 199.800781 -124.386719 185.734375 -124.960938 C 162.929688 -126.1875 142.679688 -127.539062 124.984375 -129.011719 C 108.6875 -130.371094 94.320312 -130.382812 81.890625 -129.050781 C 71.023438 -127.90625 61.816406 -124.925781 54.261719 -120.101562 C 46.617188 -115.21875 40.582031 -109.210938 36.152344 -102.074219 C 31.5625 -94.671875 28.609375 -86.746094 27.296875 -78.292969 C 25.40625 -66.578125 26.109375 -56.351562 29.40625 -47.617188 C 32.804688 -38.621094 38.023438 -30.964844 45.0625 -24.65625 C 52.511719 -17.984375 61.34375 -12.878906 71.558594 -9.34375 C 82.175781 -5.667969 93.339844 -3.832031 105.054688 -3.832031 C 117.609375 -3.832031 129.75 -5.988281 141.476562 -10.308594 C 153.121094 -14.601562 163.40625 -20.648438 172.328125 -28.457031 C 181.003906 -36.046875 187.75 -45.007812 192.570312 -55.335938 C 197.195312 -65.246094 199.21875 -76.285156 198.640625 -88.457031 Z M 198.640625 -88.457031 "/></g></g><g style="fill:#14537d;fill-opacity:1;"><g transform="translate(293.742618, 556.432535)"><path style="stroke:none" d="M 102.136719 -192.417969 C 90.167969 -192.417969 80.300781 -196.421875 72.527344 -204.429688 C 64.90625 -212.277344 61.097656 -221.953125 61.097656 -233.453125 C 61.097656 -246.371094 65.578125 -257.199219 74.53125 -265.941406 C 83.359375 -274.558594 93.777344 -278.867188 105.785156 -278.867188 C 118.453125 -278.867188 128.691406 -274.609375 136.496094 -266.089844 C 143.867188 -258.054688 147.550781 -248.269531 147.550781 -236.734375 C 147.550781 -225.484375 143.523438 -215.421875 135.472656 -206.542969 C 126.929688 -197.125 115.816406 -192.417969 102.136719 -192.417969 Z M 102.136719 -230.71875 C 104.503906 -230.71875 106.160156 -231.234375 107.101562 -232.273438 C 108.53125 -233.851562 109.25 -235.339844 109.25 -236.734375 C 109.25 -238.335938 108.921875 -239.492188 108.261719 -240.210938 C 108.046875 -240.445312 107.21875 -240.566406 105.785156 -240.566406 C 104.171875 -240.566406 102.675781 -239.890625 101.285156 -238.535156 C 100.027344 -237.308594 99.398438 -235.613281 99.398438 -233.453125 C 99.398438 -232.308594 99.601562 -231.523438 100.011719 -231.105469 C 100.261719 -230.847656 100.96875 -230.71875 102.136719 -230.71875 Z M 156.484375 -192.417969 C 144.519531 -192.417969 134.648438 -196.421875 126.875 -204.429688 C 119.257812 -212.277344 115.449219 -221.953125 115.449219 -233.453125 C 115.449219 -246.371094 119.925781 -257.199219 128.882812 -265.941406 C 137.710938 -274.558594 148.125 -278.867188 160.132812 -278.867188 C 172.800781 -278.867188 183.039062 -274.609375 190.847656 -266.089844 C 198.214844 -258.054688 201.898438 -248.269531 201.898438 -236.734375 C 201.898438 -225.484375 197.875 -215.421875 189.820312 -206.542969 C 181.28125 -197.125 170.167969 -192.417969 156.484375 -192.417969 Z M 156.484375 -230.71875 C 158.855469 -230.71875 160.511719 -231.234375 161.453125 -232.273438 C 162.882812 -233.851562 163.597656 -235.339844 163.597656 -236.734375 C 163.597656 -238.335938 163.269531 -239.492188 162.613281 -240.210938 C 162.398438 -240.445312 161.570312 -240.566406 160.132812 -240.566406 C 158.523438 -240.566406 157.023438 -239.890625 155.636719 -238.535156 C 154.378906 -237.308594 153.75 -235.613281 153.75 -233.453125 C 153.75 -232.308594 153.953125 -231.523438 154.359375 -231.105469 C 154.613281 -230.847656 155.320312 -230.71875 156.484375 -230.71875 Z M 128.035156 -213.9375 C 147.632812 -213.9375 163.992188 -208.625 177.113281 -197.996094 C 184.089844 -192.34375 189.398438 -185.832031 193.035156 -178.460938 C 196.757812 -170.925781 198.617188 -162.75 198.617188 -153.933594 L 179.46875 -153.933594 L 198.523438 -155.839844 C 198.902344 -152.039062 198.832031 -147.875 198.308594 -143.347656 C 197.929688 -140.074219 197.492188 -136.558594 196.992188 -132.796875 L 196.921875 -132.273438 L 181.5 -51.140625 C 178.316406 -35.21875 171.304688 -21.597656 160.46875 -10.28125 C 150.417969 0.210938 138.3125 8.523438 124.152344 14.65625 C 110.703125 20.480469 96.457031 24.359375 81.414062 26.289062 C 66.484375 28.207031 51.921875 28.199219 37.726562 26.269531 C 22.949219 24.261719 9.628906 20.109375 -2.230469 13.8125 C -15.214844 6.921875 -25.171875 -2.300781 -32.105469 -13.855469 C -39.632812 -26.398438 -42.035156 -40.824219 -39.316406 -57.132812 L -20.425781 -53.984375 L -39.386719 -56.695312 C -38.152344 -65.332031 -34.445312 -71.96875 -28.269531 -76.601562 C -22.917969 -80.613281 -16.902344 -82.621094 -10.214844 -82.621094 L 14.664062 -82.621094 L 8.300781 -58.570312 C 7.90625 -57.089844 7.789062 -55.882812 7.945312 -54.945312 C 8.058594 -54.285156 8.375 -53.597656 8.894531 -52.882812 C 11.324219 -49.558594 15.308594 -46.8125 20.847656 -44.640625 C 27.738281 -41.941406 35.519531 -40.496094 44.199219 -40.300781 C 52.945312 -40.109375 61.628906 -41.429688 70.242188 -44.269531 C 78.058594 -46.84375 84.785156 -50.949219 90.417969 -56.585938 L 103.960938 -43.042969 L 102.6875 -23.933594 C 80.898438 -25.386719 62.890625 -31.085938 48.667969 -41.023438 C 34.207031 -51.132812 24.019531 -63.695312 18.109375 -78.707031 C 12.371094 -93.285156 10.65625 -108.570312 12.964844 -124.566406 C 15.230469 -140.285156 21.21875 -154.9375 30.925781 -168.527344 C 40.65625 -182.15625 53.796875 -193.140625 70.347656 -201.488281 C 86.800781 -209.789062 106.027344 -213.9375 128.035156 -213.9375 Z M 128.035156 -175.636719 C 112.105469 -175.636719 98.625 -172.855469 87.597656 -167.292969 C 76.667969 -161.78125 68.164062 -154.769531 62.089844 -146.265625 C 55.992188 -137.726562 52.253906 -128.671875 50.871094 -119.097656 C 49.53125 -109.804688 50.492188 -101.015625 53.75 -92.734375 C 56.839844 -84.886719 62.457031 -78.117188 70.609375 -72.417969 C 79.003906 -66.550781 90.542969 -63.128906 105.234375 -62.152344 L 147.34375 -59.34375 L 117.5 -29.5 C 107.570312 -19.570312 95.816406 -12.371094 82.230469 -7.894531 C 69.445312 -3.679688 56.484375 -1.71875 43.347656 -2.011719 C 30.136719 -2.304688 17.980469 -4.628906 6.875 -8.980469 C -5.582031 -13.863281 -15.214844 -20.964844 -22.027344 -30.285156 C -26.125 -35.890625 -28.726562 -42.011719 -29.832031 -48.648438 C -30.894531 -55.007812 -30.523438 -61.582031 -28.726562 -68.371094 L -10.214844 -63.46875 L -10.214844 -44.320312 C -8.390625 -44.320312 -6.75 -44.867188 -5.289062 -45.960938 C -3.851562 -47.039062 -2.761719 -48.320312 -2.023438 -49.800781 C -1.703125 -50.4375 -1.519531 -50.929688 -1.46875 -51.277344 L -1.5 -51.058594 L -1.539062 -50.835938 C -2.710938 -43.800781 -1.953125 -38.042969 0.734375 -33.5625 C 4.015625 -28.09375 9.015625 -23.578125 15.726562 -20.015625 C 23.566406 -15.855469 32.617188 -13.078125 42.886719 -11.679688 C 53.738281 -10.207031 64.953125 -10.210938 76.53125 -11.699219 C 87.996094 -13.171875 98.796875 -16.101562 108.933594 -20.492188 C 118.363281 -24.574219 126.320312 -30.003906 132.808594 -36.773438 C 138.503906 -42.722656 142.195312 -49.894531 143.875 -58.289062 L 159.195312 -138.90625 L 178.007812 -135.328125 L 159.023438 -137.859375 C 159.496094 -141.398438 159.910156 -144.6875 160.261719 -147.738281 C 160.46875 -149.535156 160.519531 -150.964844 160.410156 -152.027344 L 160.316406 -152.976562 L 160.316406 -153.933594 C 160.316406 -156.789062 159.773438 -159.3125 158.691406 -161.503906 C 157.53125 -163.859375 155.632812 -166.105469 153.003906 -168.234375 C 146.910156 -173.167969 138.589844 -175.636719 128.035156 -175.636719 Z M 127.304688 -157.398438 C 118.894531 -157.398438 112.488281 -155.636719 108.082031 -152.109375 C 103.203125 -148.210938 99.832031 -143.304688 97.960938 -137.394531 C 95.898438 -130.875 95.53125 -124.164062 96.863281 -117.25 C 98.113281 -110.773438 101.007812 -105.113281 105.542969 -100.261719 C 109.703125 -95.816406 115.777344 -92.875 123.765625 -91.4375 L 120.375 -72.589844 L 103.246094 -81.152344 C 102.140625 -78.945312 101.589844 -76.636719 101.589844 -74.230469 C 101.589844 -77.851562 102.382812 -81.253906 103.976562 -84.4375 L 121.105469 -75.871094 L 102.234375 -79.148438 L 112.8125 -140.066406 C 114.378906 -149.253906 114.929688 -155.117188 114.472656 -157.664062 L 110.566406 -179.429688 L 126.128906 -186.503906 C 128.996094 -187.808594 132.714844 -188.839844 137.289062 -189.601562 L 140.4375 -170.710938 L 125.574219 -158.636719 C 125.921875 -158.207031 126.398438 -157.859375 127.003906 -157.589844 C 127.230469 -157.488281 127.429688 -157.421875 127.605469 -157.386719 C 127.570312 -157.394531 127.46875 -157.398438 127.304688 -157.398438 Z M 127.304688 -195.699219 C 132.8125 -195.699219 137.894531 -194.664062 142.558594 -192.589844 C 147.542969 -190.375 151.789062 -187.109375 155.300781 -182.789062 L 176.0625 -157.234375 L 143.585938 -151.824219 C 142.671875 -151.671875 141.949219 -151.527344 141.421875 -151.390625 C 141.324219 -151.363281 141.269531 -151.351562 141.261719 -151.347656 C 141.460938 -151.414062 141.703125 -151.511719 141.976562 -151.636719 L 139.972656 -150.726562 L 132.046875 -168.160156 L 150.894531 -171.542969 L 152.171875 -164.429688 C 153.417969 -157.488281 152.878906 -147.183594 150.550781 -133.511719 L 139.492188 -69.824219 L 138.230469 -67.308594 C 139.335938 -69.515625 139.890625 -71.824219 139.890625 -74.230469 C 139.890625 -70.609375 139.09375 -67.207031 137.503906 -64.023438 L 131.089844 -51.203125 L 116.980469 -53.742188 C 100.652344 -56.679688 87.519531 -63.464844 77.570312 -74.097656 C 68.003906 -84.324219 61.898438 -96.292969 59.257812 -110 C 56.699219 -123.273438 57.425781 -136.257812 61.445312 -148.949219 C 65.652344 -162.25 73.222656 -173.273438 84.152344 -182.019531 C 95.554688 -191.140625 109.9375 -195.699219 127.304688 -195.699219 Z M 127.304688 -195.699219 "/></g></g><g style="fill:#14537d;fill-opacity:1;"><g transform="translate(469.561442, 556.432535)"><path style="stroke:none" d="M -49.367188 61.261719 C -51.636719 55.023438 -51.539062 49.195312 -49.078125 43.78125 C -47.003906 39.21875 -43.695312 35.847656 -39.152344 33.675781 C -36.191406 32.261719 -32.988281 31.550781 -29.546875 31.550781 C -22.398438 31.550781 -16.488281 29.527344 -11.820312 25.476562 C -5.726562 20.1875 -0.457031 12.480469 3.980469 2.347656 C 9.082031 -9.292969 13.378906 -22.90625 16.878906 -38.484375 C 20.542969 -54.785156 23.734375 -72.355469 26.460938 -91.199219 C 29.234375 -110.382812 31.828125 -129.988281 34.242188 -150.023438 C 35.507812 -159.921875 35.9375 -166.433594 35.539062 -169.554688 L 32.699219 -191.707031 L 51.273438 -198.675781 C 56.359375 -200.582031 63.464844 -201.535156 72.589844 -201.535156 C 94.285156 -201.535156 108.464844 -195.402344 115.132812 -183.140625 C 120.28125 -173.667969 121.390625 -160.308594 118.460938 -143.066406 L 111.875 -105.738281 C 108.144531 -84.597656 103.726562 -64.007812 98.625 -43.972656 C 93.359375 -23.300781 86.910156 -4.542969 79.265625 12.292969 C 71.039062 30.425781 60.699219 45.285156 48.25 56.875 C 34.507812 69.671875 17.945312 77.007812 -1.4375 78.882812 L -1.761719 78.914062 L -2.089844 78.933594 C -6.578125 79.214844 -11.066406 79.285156 -15.554688 79.144531 C -19.699219 79.015625 -23.601562 78.820312 -27.261719 78.558594 C -33.023438 78.078125 -37.9375 76.082031 -41.996094 72.5625 C -45.957031 69.128906 -48.605469 64.730469 -49.949219 59.359375 L -31.371094 54.714844 Z M -13.371094 48.171875 L -13.03125 49.105469 L -12.792969 50.070312 C -13.40625 47.617188 -14.777344 45.46875 -16.914062 43.617188 C -19.148438 41.679688 -21.691406 40.589844 -24.535156 40.355469 C -21.386719 40.582031 -17.992188 40.75 -14.355469 40.863281 C -11.066406 40.964844 -7.769531 40.914062 -4.476562 40.710938 L -3.28125 59.824219 L -5.128906 40.761719 C 5.644531 39.71875 14.738281 35.746094 22.152344 28.84375 C 30.859375 20.738281 38.273438 9.941406 44.390625 -3.539062 C 51.097656 -18.3125 56.800781 -34.941406 61.507812 -53.421875 C 66.375 -72.535156 70.59375 -92.195312 74.15625 -112.394531 L 80.703125 -149.480469 C 81.566406 -154.570312 81.925781 -158.738281 81.773438 -161.988281 C 81.722656 -163.125 81.613281 -164.050781 81.445312 -164.761719 C 81.40625 -164.925781 81.375 -165.050781 81.34375 -165.132812 C 81.367188 -165.066406 81.414062 -164.972656 81.480469 -164.851562 C 82.105469 -163.699219 82.871094 -162.796875 83.773438 -162.144531 C 83.945312 -162.019531 84.078125 -161.933594 84.175781 -161.886719 C 84.066406 -161.9375 83.894531 -162.003906 83.65625 -162.082031 C 81.300781 -162.851562 77.613281 -163.234375 72.589844 -163.234375 C 69.902344 -163.234375 67.695312 -163.136719 65.976562 -162.945312 C 65.367188 -162.875 64.878906 -162.800781 64.503906 -162.722656 C 64.433594 -162.707031 64.386719 -162.699219 64.367188 -162.691406 C 64.464844 -162.71875 64.582031 -162.757812 64.722656 -162.8125 L 60.34375 -161.171875 L 53.621094 -179.101562 L 72.617188 -181.539062 L 73.527344 -174.425781 C 74.34375 -168.0625 73.925781 -158.402344 72.269531 -145.441406 C 69.820312 -125.105469 67.183594 -105.199219 64.367188 -85.714844 C 61.5 -65.894531 58.128906 -47.351562 54.25 -30.089844 C 50.210938 -12.113281 45.148438 3.824219 39.0625 17.714844 C 32.316406 33.117188 23.722656 45.347656 13.28125 54.40625 C 1.410156 64.703125 -12.863281 69.855469 -29.546875 69.855469 C -27.199219 69.855469 -24.890625 69.3125 -22.628906 68.230469 C -18.785156 66.394531 -15.980469 63.527344 -14.210938 59.628906 C -12.964844 56.890625 -12.472656 54.089844 -12.730469 51.226562 C -12.835938 50.078125 -13.050781 49.058594 -13.371094 48.171875 Z M -13.371094 48.171875 "/></g></g><g style="fill:#14537d;fill-opacity:1;"><g transform="translate(570.602514, 556.432535)"><path style="stroke:none" d="M 190.496094 -143.4375 C 190.878906 -139.636719 190.804688 -135.472656 190.285156 -130.945312 C 189.90625 -127.671875 189.464844 -124.15625 188.964844 -120.394531 L 188.910156 -119.996094 L 182.277344 -82.394531 C 177.242188 -53.695312 170.914062 -28.234375 163.292969 -6.007812 C 155.050781 18.035156 143.699219 37.355469 129.238281 51.957031 C 113.59375 67.757812 93.507812 76.855469 68.976562 79.246094 L 68.644531 79.28125 L 68.3125 79.300781 C 63.824219 79.582031 59.335938 79.652344 54.847656 79.511719 C 50.699219 79.382812 46.796875 79.183594 43.136719 78.925781 C 37.375 78.445312 32.464844 76.445312 28.402344 72.925781 C 24.445312 69.496094 21.792969 65.09375 20.453125 59.726562 L 39.03125 55.082031 L 21.03125 61.625 C 18.765625 55.386719 18.863281 49.5625 21.324219 44.144531 C 23.398438 39.582031 26.707031 36.214844 31.246094 34.042969 C 34.207031 32.625 37.410156 31.917969 40.855469 31.917969 C 50.792969 31.917969 58.585938 29.199219 64.242188 23.761719 C 71.46875 16.820312 77.492188 6.71875 82.3125 -6.542969 L 100.3125 0 L 99.402344 19.128906 C 81.363281 18.269531 64.625 13.945312 49.1875 6.152344 C 33.308594 -1.859375 20.496094 -12.839844 10.75 -26.78125 C 0.542969 -41.386719 -4.558594 -58.234375 -4.558594 -77.332031 C -4.558594 -96.050781 -0.828125 -113.164062 6.636719 -128.675781 C 13.921875 -143.820312 23.597656 -156.851562 35.667969 -167.769531 C 47.585938 -178.554688 60.875 -186.863281 75.539062 -192.699219 C 90.335938 -198.589844 105.160156 -201.535156 120.007812 -201.535156 C 139.609375 -201.535156 155.96875 -196.222656 169.089844 -185.59375 C 176.0625 -179.941406 181.371094 -173.429688 185.011719 -166.058594 C 188.730469 -158.523438 190.59375 -150.347656 190.59375 -141.53125 L 171.441406 -141.53125 Z M 152.386719 -139.625 L 152.292969 -140.574219 L 152.292969 -141.53125 C 152.292969 -144.386719 151.75 -146.910156 150.667969 -149.101562 C 149.503906 -151.457031 147.609375 -153.703125 144.980469 -155.832031 C 138.886719 -160.765625 130.5625 -163.234375 120.007812 -163.234375 C 110.054688 -163.234375 99.953125 -161.195312 89.703125 -157.113281 C 79.316406 -152.980469 69.871094 -147.066406 61.363281 -139.367188 C 53.003906 -131.804688 46.265625 -122.707031 41.148438 -112.070312 C 36.210938 -101.804688 33.742188 -90.226562 33.742188 -77.332031 C 33.742188 -66.273438 36.542969 -56.738281 42.140625 -48.722656 C 48.203125 -40.050781 56.304688 -33.15625 66.445312 -28.039062 C 77.027344 -22.699219 88.617188 -19.730469 101.222656 -19.128906 L 127.195312 -17.890625 L 118.308594 6.542969 C 111.460938 25.382812 102.285156 40.328125 90.785156 51.378906 C 77.714844 63.9375 61.070312 70.21875 40.855469 70.21875 C 43.203125 70.21875 45.507812 69.675781 47.773438 68.59375 C 51.613281 66.757812 54.421875 63.890625 56.191406 59.996094 C 57.4375 57.253906 57.929688 54.453125 57.667969 51.589844 C 57.566406 50.441406 57.351562 49.425781 57.027344 48.535156 L 57.367188 49.46875 L 57.609375 50.4375 C 56.996094 47.984375 55.621094 45.832031 53.488281 43.984375 C 51.25 42.042969 48.710938 40.957031 45.867188 40.71875 C 49.015625 40.945312 52.40625 41.113281 56.042969 41.226562 C 59.335938 41.332031 62.628906 41.28125 65.921875 41.074219 L 67.117188 60.1875 L 65.257812 41.128906 C 80.609375 39.628906 92.867188 34.257812 102.023438 25.007812 C 112.371094 14.5625 120.714844 0.0820312 127.0625 -18.429688 C 134.035156 -38.761719 139.863281 -62.300781 144.558594 -89.050781 L 151.125 -126.253906 L 169.984375 -122.925781 L 151 -125.457031 C 151.472656 -128.996094 151.882812 -132.285156 152.234375 -135.335938 C 152.441406 -137.132812 152.492188 -138.5625 152.386719 -139.625 Z M 81.160156 -84.625 C 81.160156 -75.128906 83.90625 -67.484375 89.398438 -61.695312 C 95.609375 -55.148438 103.417969 -50.933594 112.820312 -49.054688 L 109.066406 -30.277344 L 90.355469 -34.359375 C 93.179688 -47.296875 95.714844 -61.453125 97.960938 -76.816406 C 100.25 -92.484375 102.480469 -109.121094 104.652344 -126.730469 C 105.910156 -136.59375 106.339844 -143.085938 105.9375 -146.207031 L 103.230469 -167.339844 L 118.101562 -174.101562 C 120.96875 -175.40625 124.6875 -176.4375 129.261719 -177.199219 L 132.410156 -158.308594 L 117.546875 -146.234375 C 117.898438 -145.804688 118.375 -145.457031 118.980469 -145.1875 C 119.207031 -145.085938 119.40625 -145.019531 119.578125 -144.984375 C 119.542969 -144.992188 119.445312 -144.996094 119.28125 -144.996094 C 117.089844 -144.996094 114.1875 -143.957031 110.574219 -141.882812 C 105.90625 -139.203125 101.308594 -135.230469 96.777344 -129.957031 C 92.25 -124.691406 88.5 -118.21875 85.523438 -110.535156 C 82.613281 -103.035156 81.160156 -94.398438 81.160156 -84.625 Z M 42.859375 -84.625 C 42.859375 -99.171875 45.175781 -112.421875 49.808594 -124.375 C 54.371094 -136.148438 60.34375 -146.332031 67.734375 -154.925781 C 75.117188 -163.515625 83.042969 -170.242188 91.507812 -175.101562 C 101.023438 -180.566406 110.28125 -183.296875 119.28125 -183.296875 C 124.785156 -183.296875 129.871094 -182.261719 134.535156 -180.1875 C 139.519531 -177.972656 143.765625 -174.707031 147.273438 -170.386719 L 168.035156 -144.832031 L 135.558594 -139.421875 C 134.644531 -139.269531 133.925781 -139.125 133.394531 -138.988281 C 133.296875 -138.960938 133.242188 -138.949219 133.234375 -138.945312 C 133.4375 -139.011719 133.675781 -139.109375 133.953125 -139.234375 L 131.945312 -138.324219 L 124.023438 -155.757812 L 143.015625 -158.191406 L 143.929688 -151.078125 C 144.746094 -144.71875 144.324219 -135.039062 142.664062 -122.042969 C 140.457031 -104.148438 138.1875 -87.226562 135.859375 -71.277344 C 133.484375 -55.03125 130.789062 -40.003906 127.777344 -26.195312 L 123.765625 -7.804688 L 105.308594 -11.496094 C 87.964844 -14.964844 73.398438 -22.910156 61.613281 -35.332031 C 49.113281 -48.511719 42.859375 -64.941406 42.859375 -84.625 Z M 42.859375 -84.625 "/></g></g><g style="fill:#3498db;fill-opacity:1;"><g transform="translate(67.950374, 556.432535)"><path style="stroke:none" d="M 79.890625 -192.234375 C 79.890625 -199.773438 82.441406 -206.035156 87.546875 -211.015625 C 92.648438 -216.003906 98.609375 -218.5 105.421875 -218.5 C 112.472656 -218.5 118.003906 -216.304688 122.015625 -211.921875 C 126.023438 -207.546875 128.03125 -202.078125 128.03125 -195.515625 C 128.03125 -189.191406 125.660156 -183.414062 120.921875 -178.1875 C 116.179688 -172.957031 109.796875 -170.34375 101.765625 -170.34375 C 95.203125 -170.34375 89.914062 -172.410156 85.90625 -176.546875 C 81.894531 -180.679688 79.890625 -185.910156 79.890625 -192.234375 Z M 134.234375 -192.234375 C 134.234375 -199.773438 136.785156 -206.035156 141.890625 -211.015625 C 146.992188 -216.003906 152.953125 -218.5 159.765625 -218.5 C 166.816406 -218.5 172.347656 -216.304688 176.359375 -211.921875 C 180.378906 -207.546875 182.390625 -202.078125 182.390625 -195.515625 C 182.390625 -189.191406 180.015625 -183.414062 175.265625 -178.1875 C 170.523438 -172.957031 164.144531 -170.34375 156.125 -170.34375 C 149.550781 -170.34375 144.257812 -172.410156 140.25 -176.546875 C 136.238281 -180.679688 134.234375 -185.910156 134.234375 -192.234375 Z M 217.765625 -89.375 C 218.492188 -74.050781 215.878906 -60.003906 209.921875 -47.234375 C 203.960938 -34.472656 195.632812 -23.410156 184.9375 -14.046875 C 174.238281 -4.679688 161.957031 2.550781 148.09375 7.65625 C 134.226562 12.757812 119.878906 15.3125 105.046875 15.3125 C 91.191406 15.3125 77.941406 13.125 65.296875 8.75 C 52.648438 4.375 41.644531 -2.003906 32.28125 -10.390625 C 22.914062 -18.785156 15.984375 -28.941406 11.484375 -40.859375 C 6.984375 -52.773438 5.953125 -66.269531 8.390625 -81.34375 C 10.085938 -92.28125 13.914062 -102.550781 19.875 -112.15625 C 25.832031 -121.769531 33.859375 -129.796875 43.953125 -136.234375 C 54.046875 -142.679688 66.023438 -146.632812 79.890625 -148.09375 C 93.503906 -149.550781 109.066406 -149.550781 126.578125 -148.09375 C 144.085938 -146.632812 164.148438 -145.296875 186.765625 -144.078125 C 198.679688 -143.597656 207.066406 -144.023438 211.921875 -145.359375 C 216.785156 -146.691406 219.21875 -147.359375 219.21875 -147.359375 C 219.21875 -147.359375 219.398438 -145.957031 219.765625 -143.15625 C 220.128906 -140.363281 219.460938 -135.566406 217.765625 -128.765625 C 214.359375 -114.660156 209.128906 -105.722656 202.078125 -101.953125 C 195.023438 -98.179688 185.300781 -96.78125 172.90625 -97.75 C 157.582031 -98.96875 142.742188 -100.242188 128.390625 -101.578125 C 114.046875 -102.921875 101.035156 -103.410156 89.359375 -103.046875 C 77.691406 -102.679688 67.84375 -100.367188 59.8125 -96.109375 C 51.789062 -91.859375 46.441406 -84.75 43.765625 -74.78125 C 41.335938 -65.539062 42.492188 -57.269531 47.234375 -49.96875 C 51.972656 -42.675781 59.023438 -36.597656 68.390625 -31.734375 C 77.753906 -26.867188 88.269531 -23.460938 99.9375 -21.515625 C 111.613281 -19.578125 123.285156 -19.273438 134.953125 -20.609375 C 146.628906 -21.941406 157.085938 -25.101562 166.328125 -30.09375 C 175.566406 -35.082031 182.253906 -42.070312 186.390625 -51.0625 C 188.335938 -55.195312 189.734375 -59.632812 190.578125 -64.375 C 191.429688 -69.125 191.984375 -74.296875 192.234375 -79.890625 C 192.472656 -83.535156 193.867188 -86.632812 196.421875 -89.1875 C 198.972656 -91.738281 201.828125 -93.5625 204.984375 -94.65625 C 208.148438 -95.75 211.007812 -95.929688 213.5625 -95.203125 C 216.125 -94.472656 217.523438 -92.53125 217.765625 -89.375 Z M 217.765625 -89.375 "/></g></g><g style="fill:#3498db;fill-opacity:1;"><g transform="translate(293.742618, 556.432535)"><path style="stroke:none" d="M 102.140625 -211.5625 C 95.566406 -211.5625 90.273438 -213.628906 86.265625 -217.765625 C 82.253906 -221.898438 80.25 -227.128906 80.25 -233.453125 C 80.25 -240.984375 82.800781 -247.242188 87.90625 -252.234375 C 93.007812 -257.222656 98.96875 -259.71875 105.78125 -259.71875 C 112.832031 -259.71875 118.363281 -257.523438 122.375 -253.140625 C 126.382812 -248.765625 128.390625 -243.296875 128.390625 -236.734375 C 128.390625 -230.410156 126.019531 -224.632812 121.28125 -219.40625 C 116.539062 -214.175781 110.160156 -211.5625 102.140625 -211.5625 Z M 156.484375 -211.5625 C 149.921875 -211.5625 144.628906 -213.628906 140.609375 -217.765625 C 136.597656 -221.898438 134.59375 -227.128906 134.59375 -233.453125 C 134.59375 -240.984375 137.144531 -247.242188 142.25 -252.234375 C 147.363281 -257.222656 153.320312 -259.71875 160.125 -259.71875 C 167.175781 -259.71875 172.707031 -257.523438 176.71875 -253.140625 C 180.738281 -248.765625 182.75 -243.296875 182.75 -236.734375 C 182.75 -230.410156 180.375 -224.632812 175.625 -219.40625 C 170.882812 -214.175781 164.503906 -211.5625 156.484375 -211.5625 Z M 128.03125 -194.78125 C 143.101562 -194.78125 155.441406 -190.890625 165.046875 -183.109375 C 174.660156 -175.328125 179.46875 -165.601562 179.46875 -153.9375 C 179.707031 -151.5 179.644531 -148.695312 179.28125 -145.53125 C 178.914062 -142.375 178.488281 -138.972656 178 -135.328125 L 162.6875 -54.71875 C 160.25 -42.5625 154.894531 -32.164062 146.625 -23.53125 C 138.363281 -14.894531 128.332031 -8.023438 116.53125 -2.921875 C 104.738281 2.179688 92.21875 5.582031 78.96875 7.28125 C 65.71875 8.988281 52.828125 8.988281 40.296875 7.28125 C 27.773438 5.582031 16.585938 2.125 6.734375 -3.09375 C -3.109375 -8.320312 -10.582031 -15.191406 -15.6875 -23.703125 C -20.789062 -32.222656 -22.367188 -42.316406 -20.421875 -53.984375 C -19.941406 -57.390625 -18.726562 -59.820312 -16.78125 -61.28125 C -14.832031 -62.738281 -12.644531 -63.46875 -10.21875 -63.46875 C -12.40625 -55.195312 -11.1875 -47.898438 -6.5625 -41.578125 C -1.945312 -35.253906 4.859375 -30.328125 13.859375 -26.796875 C 22.859375 -23.273438 32.828125 -21.394531 43.765625 -21.15625 C 54.710938 -20.914062 65.535156 -22.554688 76.234375 -26.078125 C 86.929688 -29.609375 96.171875 -35.265625 103.953125 -43.046875 C 85.710938 -44.253906 70.9375 -48.8125 59.625 -56.71875 C 48.320312 -64.625 40.421875 -74.289062 35.921875 -85.71875 C 31.429688 -97.144531 30.097656 -109.179688 31.921875 -121.828125 C 33.742188 -134.472656 38.601562 -146.328125 46.5 -157.390625 C 54.40625 -168.460938 65.226562 -177.460938 78.96875 -184.390625 C 92.707031 -191.316406 109.0625 -194.78125 128.03125 -194.78125 Z M 127.296875 -176.546875 C 114.410156 -176.546875 104.015625 -173.382812 96.109375 -167.0625 C 88.210938 -160.738281 82.742188 -152.773438 79.703125 -143.171875 C 76.660156 -133.566406 76.113281 -123.71875 78.0625 -113.625 C 80.007812 -103.53125 84.507812 -94.710938 91.5625 -87.171875 C 98.613281 -79.640625 108.21875 -74.78125 120.375 -72.59375 C 120.613281 -73.070312 120.734375 -73.613281 120.734375 -74.21875 C 120.734375 -74.832031 120.859375 -75.382812 121.109375 -75.875 L 131.6875 -136.78125 C 133.625 -148.21875 134.164062 -156.304688 133.3125 -161.046875 C 132.46875 -165.785156 132.046875 -168.15625 132.046875 -168.15625 C 132.046875 -168.15625 132.710938 -168.457031 134.046875 -169.0625 C 135.390625 -169.675781 137.519531 -170.222656 140.4375 -170.703125 C 137.269531 -174.597656 132.890625 -176.546875 127.296875 -176.546875 Z M 127.296875 -176.546875 "/></g></g><g style="fill:#3498db;fill-opacity:1;"><g transform="translate(469.561442, 556.432535)"><path style="stroke:none" d="M -31.375 54.71875 C -32.34375 52.039062 -31.734375 50.703125 -29.546875 50.703125 C -17.628906 50.703125 -7.539062 47.113281 0.71875 39.9375 C 8.988281 32.769531 15.921875 22.800781 21.515625 10.03125 C 27.109375 -2.738281 31.789062 -17.507812 35.5625 -34.28125 C 39.332031 -51.0625 42.613281 -69.117188 45.40625 -88.453125 C 48.207031 -107.785156 50.820312 -127.546875 53.25 -147.734375 C 54.707031 -159.160156 55.132812 -167.242188 54.53125 -171.984375 C 53.925781 -176.722656 53.625 -179.09375 53.625 -179.09375 C 53.625 -179.09375 55.082031 -179.640625 58 -180.734375 C 60.914062 -181.835938 65.78125 -182.390625 72.59375 -182.390625 C 86.695312 -182.390625 95.265625 -179.59375 98.296875 -174 C 101.335938 -168.40625 101.765625 -159.160156 99.578125 -146.265625 L 93.015625 -109.0625 C 89.367188 -88.394531 85.050781 -68.269531 80.0625 -48.6875 C 75.082031 -29.113281 69.003906 -11.425781 61.828125 4.375 C 54.648438 20.1875 45.769531 33.015625 35.1875 42.859375 C 24.613281 52.710938 11.789062 58.367188 -3.28125 59.828125 C -7.175781 60.066406 -11.066406 60.125 -14.953125 60 C -18.847656 59.882812 -22.492188 59.703125 -25.890625 59.453125 C -28.816406 59.210938 -30.644531 57.632812 -31.375 54.71875 Z M -31.375 54.71875 "/></g></g><g style="fill:#3498db;fill-opacity:1;"><g transform="translate(570.602514, 556.432535)"><path style="stroke:none" d="M 171.4375 -141.53125 C 171.675781 -139.09375 171.613281 -136.289062 171.25 -133.125 C 170.882812 -129.96875 170.460938 -126.566406 169.984375 -122.921875 L 163.421875 -85.71875 C 158.554688 -58 152.472656 -33.5 145.171875 -12.21875 C 137.878906 9.0625 128.03125 25.960938 115.625 38.484375 C 103.226562 51.003906 87.054688 58.238281 67.109375 60.1875 C 63.222656 60.425781 59.332031 60.484375 55.4375 60.359375 C 51.550781 60.242188 47.90625 60.066406 44.5 59.828125 C 41.582031 59.578125 39.757812 57.992188 39.03125 55.078125 C 38.0625 52.398438 38.671875 51.0625 40.859375 51.0625 C 55.929688 51.0625 68.148438 46.5625 77.515625 37.5625 C 86.878906 28.570312 94.476562 16.050781 100.3125 0 C 84.988281 -0.726562 70.820312 -4.375 57.8125 -10.9375 C 44.800781 -17.507812 34.34375 -26.445312 26.4375 -37.75 C 18.539062 -49.0625 14.59375 -62.253906 14.59375 -77.328125 C 14.59375 -93.140625 17.691406 -107.488281 23.890625 -120.375 C 30.085938 -133.257812 38.289062 -144.320312 48.5 -153.5625 C 58.71875 -162.800781 70.085938 -169.914062 82.609375 -174.90625 C 95.140625 -179.894531 107.609375 -182.390625 120.015625 -182.390625 C 135.085938 -182.390625 147.425781 -178.492188 157.03125 -170.703125 C 166.632812 -162.921875 171.4375 -153.195312 171.4375 -141.53125 Z M 62.015625 -84.625 C 62.015625 -70.03125 66.507812 -57.988281 75.5 -48.5 C 84.5 -39.019531 95.6875 -32.945312 109.0625 -30.28125 C 111.976562 -43.65625 114.59375 -58.242188 116.90625 -74.046875 C 119.21875 -89.847656 121.46875 -106.628906 123.65625 -124.390625 C 125.113281 -135.816406 125.535156 -143.898438 124.921875 -148.640625 C 124.316406 -153.378906 124.015625 -155.75 124.015625 -155.75 C 124.015625 -155.75 124.679688 -156.050781 126.015625 -156.65625 C 127.359375 -157.269531 129.488281 -157.820312 132.40625 -158.3125 C 129.25 -162.195312 124.875 -164.140625 119.28125 -164.140625 C 113.6875 -164.140625 107.601562 -162.253906 101.03125 -158.484375 C 94.46875 -154.722656 88.207031 -149.375 82.25 -142.4375 C 76.289062 -135.507812 71.425781 -127.179688 67.65625 -117.453125 C 63.894531 -107.722656 62.015625 -96.78125 62.015625 -84.625 Z M 62.015625 -84.625 "/></g></g><g style="fill:#14537d;fill-opacity:1;"><g transform="translate(137.393755, 717.741191)"><path style="stroke:none" d="M 46.75 -8.59375 L 51.734375 -8.59375 L 51.734375 0 L 45.9375 0 C 43.65625 0 41.671875 -0.535156 39.984375 -1.609375 C 38.234375 -0.535156 36.226562 0 33.96875 0 L 14.8125 0 C 11.625 0 9.101562 -1.070312 7.25 -3.21875 C 5.632812 -5.113281 4.828125 -7.546875 4.828125 -10.515625 L 4.828125 -14.921875 L 13.625 -19.59375 L 13.625 -10.953125 C 13.625 -10.015625 13.785156 -9.382812 14.109375 -9.0625 C 14.429688 -8.75 15.0625 -8.59375 16 -8.59375 L 33.171875 -8.59375 C 34.097656 -8.59375 34.722656 -8.75 35.046875 -9.0625 C 35.367188 -9.382812 35.53125 -10.015625 35.53125 -10.953125 L 35.53125 -29.953125 L 44.390625 -34.625 L 44.390625 -10.953125 C 44.390625 -10.015625 44.550781 -9.382812 44.875 -9.0625 C 45.195312 -8.75 45.820312 -8.59375 46.75 -8.59375 Z M 27.109375 -28.171875 C 29.679688 -27.535156 30.96875 -25.785156 30.96875 -22.921875 C 30.96875 -21.273438 30.507812 -19.976562 29.59375 -19.03125 C 28.6875 -18.082031 27.445312 -17.609375 25.875 -17.609375 L 17.0625 -17.609375 L 19.15625 -21.515625 L 25.4375 -21.515625 C 26.507812 -21.515625 27.046875 -22.070312 27.046875 -23.1875 C 27.046875 -24.507812 26.1875 -25.171875 24.46875 -25.171875 C 23.257812 -25.171875 22.207031 -24.742188 21.3125 -23.890625 L 21.3125 -27.421875 L 26.078125 -32.6875 L 31.125 -32.6875 Z M 27.109375 -28.171875 "/></g></g><g style="fill:#14537d;fill-opacity:1;"><g transform="translate(188.591999, 717.741191)"><path style="stroke:none" d="M 6.921875 -32.15625 C 6.921875 -30.789062 6.519531 -29.695312 5.71875 -28.875 C 4.914062 -28.050781 3.847656 -27.640625 2.515625 -27.640625 C 1.191406 -27.640625 0.117188 -28.054688 -0.703125 -28.890625 C -1.523438 -29.734375 -1.9375 -30.820312 -1.9375 -32.15625 C -1.9375 -33.476562 -1.523438 -34.539062 -0.703125 -35.34375 C 0.117188 -36.144531 1.191406 -36.546875 2.515625 -36.546875 C 3.847656 -36.546875 4.914062 -36.144531 5.71875 -35.34375 C 6.519531 -34.539062 6.921875 -33.476562 6.921875 -32.15625 Z M 12.1875 -27.640625 C 10.863281 -27.640625 9.789062 -28.054688 8.96875 -28.890625 C 8.144531 -29.734375 7.734375 -30.820312 7.734375 -32.15625 C 7.734375 -33.476562 8.144531 -34.539062 8.96875 -35.34375 C 9.789062 -36.144531 10.863281 -36.546875 12.1875 -36.546875 C 13.507812 -36.546875 14.570312 -36.144531 15.375 -35.34375 C 16.175781 -34.539062 16.578125 -33.476562 16.578125 -32.15625 C 16.578125 -30.789062 16.175781 -29.695312 15.375 -28.875 C 14.570312 -28.050781 13.507812 -27.640625 12.1875 -27.640625 Z M 18.03125 -8.59375 L 23.03125 -8.59375 L 23.03125 0 L 17.234375 0 C 14.941406 0 12.953125 -0.535156 11.265625 -1.609375 C 9.515625 -0.535156 7.515625 0 5.265625 0 L -0.53125 0 L -0.53125 -8.59375 L 4.453125 -8.59375 C 5.378906 -8.59375 6.003906 -8.75 6.328125 -9.0625 C 6.648438 -9.382812 6.8125 -10.015625 6.8125 -10.953125 L 6.8125 -19.75 L 15.671875 -24.421875 L 15.671875 -10.953125 C 15.671875 -10.015625 15.832031 -9.382812 16.15625 -9.0625 C 16.476562 -8.75 17.101562 -8.59375 18.03125 -8.59375 Z M 18.03125 -8.59375 "/></g></g><g style="fill:#14537d;fill-opacity:1;"><g transform="translate(211.078441, 717.741191)"><path style="stroke:none" d="M 11.703125 -27.640625 C 10.378906 -27.640625 9.304688 -28.054688 8.484375 -28.890625 C 7.660156 -29.734375 7.25 -30.820312 7.25 -32.15625 C 7.25 -33.476562 7.660156 -34.539062 8.484375 -35.34375 C 9.304688 -36.144531 10.378906 -36.546875 11.703125 -36.546875 C 13.023438 -36.546875 14.085938 -36.144531 14.890625 -35.34375 C 15.691406 -34.539062 16.09375 -33.476562 16.09375 -32.15625 C 16.09375 -30.789062 15.691406 -29.695312 14.890625 -28.875 C 14.085938 -28.050781 13.023438 -27.640625 11.703125 -27.640625 Z M 21.359375 -27.640625 C 20.035156 -27.640625 18.960938 -28.054688 18.140625 -28.890625 C 17.316406 -29.734375 16.90625 -30.820312 16.90625 -32.15625 C 16.90625 -33.476562 17.316406 -34.539062 18.140625 -35.34375 C 18.960938 -36.144531 20.035156 -36.546875 21.359375 -36.546875 C 22.679688 -36.546875 23.742188 -36.144531 24.546875 -35.34375 C 25.359375 -34.539062 25.765625 -33.476562 25.765625 -32.15625 C 25.765625 -30.789062 25.359375 -29.695312 24.546875 -28.875 C 23.742188 -28.050781 22.679688 -27.640625 21.359375 -27.640625 Z M -0.53125 0 L -0.53125 -8.59375 L 5.953125 -8.59375 C 5.453125 -9.914062 5.203125 -11.3125 5.203125 -12.78125 C 5.203125 -16.78125 6.332031 -19.960938 8.59375 -22.328125 C 10.59375 -24.441406 13.222656 -25.5 16.484375 -25.5 C 19.804688 -25.5 22.414062 -24.425781 24.3125 -22.28125 C 25.957031 -20.445312 26.78125 -18.066406 26.78125 -15.140625 L 26.78125 -10.515625 C 26.78125 -7.367188 25.847656 -4.828125 23.984375 -2.890625 C 22.128906 -0.960938 19.59375 0 16.375 0 Z M 17.921875 -15.453125 C 17.921875 -16.597656 17.441406 -17.171875 16.484375 -17.171875 C 14.765625 -17.171875 13.90625 -15.8125 13.90625 -13.09375 C 13.90625 -10.09375 14.765625 -8.59375 16.484375 -8.59375 C 17.441406 -8.59375 17.921875 -9.164062 17.921875 -10.3125 Z M 17.921875 -15.453125 "/></g></g><g style="fill:#14537d;fill-opacity:1;"><g transform="translate(242.15159, 717.741191)"><path style="stroke:none" d="M 15.828125 -1.65625 C 15.441406 -1.625 14.851562 -1.609375 14.0625 -1.609375 C 10.625 -1.609375 7.867188 -2.878906 5.796875 -5.421875 C 4.078125 -7.492188 3.21875 -9.945312 3.21875 -12.78125 C 3.21875 -16.78125 4.347656 -19.960938 6.609375 -22.328125 C 8.609375 -24.441406 11.234375 -25.5 14.484375 -25.5 C 17.816406 -25.5 20.429688 -24.425781 22.328125 -22.28125 C 23.972656 -20.445312 24.796875 -18.066406 24.796875 -15.140625 L 24.796875 -3.859375 C 24.796875 1.078125 23.398438 4.796875 20.609375 7.296875 C 18.460938 9.234375 15.742188 10.203125 12.453125 10.203125 C 10.085938 10.203125 7.707031 9.46875 5.3125 8 L 5.3125 0.328125 C 7.632812 1.679688 9.765625 2.359375 11.703125 2.359375 C 14.066406 2.359375 15.441406 1.019531 15.828125 -1.65625 Z M 15.9375 -15.453125 C 15.9375 -16.597656 15.453125 -17.171875 14.484375 -17.171875 C 12.773438 -17.171875 11.921875 -15.8125 11.921875 -13.09375 C 11.921875 -10.414062 12.8125 -9.078125 14.59375 -9.078125 C 15.164062 -9.078125 15.613281 -9.179688 15.9375 -9.390625 Z M 15.9375 -15.453125 "/></g></g><g style="fill:#14537d;fill-opacity:1;"><g transform="translate(271.239057, 717.741191)"><path style="stroke:none" d=""/></g></g><g style="fill:#14537d;fill-opacity:1;"><g transform="translate(284.816788, 717.741191)"><path style="stroke:none" d="M 18.625 -8.59375 L 23.609375 -8.59375 L 23.609375 0 L 17.8125 0 C 17.351562 0 16.726562 -0.0351562 15.9375 -0.109375 C 15.039062 4.398438 12.753906 7.550781 9.078125 9.34375 C 7.460938 10.09375 5.742188 10.46875 3.921875 10.46875 C 1.484375 10.46875 -0.894531 9.820312 -3.21875 8.53125 L -3.21875 0.859375 C -1.320312 1.929688 0.5 2.46875 2.25 2.46875 C 2.96875 2.46875 3.628906 2.378906 4.234375 2.203125 C 6.347656 1.523438 7.40625 -0.28125 7.40625 -3.21875 L 7.40625 -19.75 L 16.265625 -24.421875 L 16.265625 -10.953125 C 16.265625 -10.015625 16.425781 -9.382812 16.75 -9.0625 C 17.070312 -8.75 17.695312 -8.59375 18.625 -8.59375 Z M 18.625 -8.59375 "/></g></g><g style="fill:#14537d;fill-opacity:1;"><g transform="translate(307.893579, 717.741191)"><path style="stroke:none" d="M 16.375 -27.6875 C 15.050781 -27.6875 13.976562 -28.109375 13.15625 -28.953125 C 12.332031 -29.796875 11.921875 -30.878906 11.921875 -32.203125 C 11.921875 -33.523438 12.332031 -34.585938 13.15625 -35.390625 C 13.976562 -36.203125 15.050781 -36.609375 16.375 -36.609375 C 17.695312 -36.609375 18.757812 -36.203125 19.5625 -35.390625 C 20.363281 -34.585938 20.765625 -33.523438 20.765625 -32.203125 C 20.765625 -30.835938 20.363281 -29.742188 19.5625 -28.921875 C 18.757812 -28.097656 17.695312 -27.6875 16.375 -27.6875 Z M -0.53125 0 L -0.53125 -8.59375 L 5.953125 -8.59375 C 5.453125 -9.914062 5.203125 -11.3125 5.203125 -12.78125 C 5.203125 -16.78125 6.332031 -19.960938 8.59375 -22.328125 C 10.59375 -24.441406 13.222656 -25.5 16.484375 -25.5 C 19.804688 -25.5 22.414062 -24.425781 24.3125 -22.28125 C 25.957031 -20.445312 26.78125 -18.066406 26.78125 -15.140625 L 26.78125 -10.515625 C 26.78125 -7.367188 25.847656 -4.828125 23.984375 -2.890625 C 22.128906 -0.960938 19.59375 0 16.375 0 Z M 17.921875 -15.453125 C 17.921875 -16.597656 17.441406 -17.171875 16.484375 -17.171875 C 14.765625 -17.171875 13.90625 -15.8125 13.90625 -13.09375 C 13.90625 -10.09375 14.765625 -8.59375 16.484375 -8.59375 C 17.441406 -8.59375 17.921875 -9.164062 17.921875 -10.3125 Z M 17.921875 -15.453125 "/></g></g><g style="fill:#14537d;fill-opacity:1;"><g transform="translate(338.966714, 717.741191)"><path style="stroke:none" d="M 15.828125 -1.65625 C 15.441406 -1.625 14.851562 -1.609375 14.0625 -1.609375 C 10.625 -1.609375 7.867188 -2.878906 5.796875 -5.421875 C 4.078125 -7.492188 3.21875 -9.945312 3.21875 -12.78125 C 3.21875 -16.78125 4.347656 -19.960938 6.609375 -22.328125 C 8.609375 -24.441406 11.234375 -25.5 14.484375 -25.5 C 17.816406 -25.5 20.429688 -24.425781 22.328125 -22.28125 C 23.972656 -20.445312 24.796875 -18.066406 24.796875 -15.140625 L 24.796875 -3.859375 C 24.796875 1.078125 23.398438 4.796875 20.609375 7.296875 C 18.460938 9.234375 15.742188 10.203125 12.453125 10.203125 C 10.085938 10.203125 7.707031 9.46875 5.3125 8 L 5.3125 0.328125 C 7.632812 1.679688 9.765625 2.359375 11.703125 2.359375 C 14.066406 2.359375 15.441406 1.019531 15.828125 -1.65625 Z M 15.9375 -15.453125 C 15.9375 -16.597656 15.453125 -17.171875 14.484375 -17.171875 C 12.773438 -17.171875 11.921875 -15.8125 11.921875 -13.09375 C 11.921875 -10.414062 12.8125 -9.078125 14.59375 -9.078125 C 15.164062 -9.078125 15.613281 -9.179688 15.9375 -9.390625 Z M 15.9375 -15.453125 "/></g></g><g style="fill:#14537d;fill-opacity:1;"><g transform="translate(368.054189, 717.741191)"><path style="stroke:none" d=""/></g></g><g style="fill:#14537d;fill-opacity:1;"><g transform="translate(381.63192, 717.741191)"><path style="stroke:none" d="M 10.46875 -11.8125 C 12.070312 -11.8125 13.363281 -11.289062 14.34375 -10.25 C 15.332031 -9.207031 15.828125 -7.847656 15.828125 -6.171875 C 15.828125 -4.304688 15.226562 -2.765625 14.03125 -1.546875 C 12.832031 -0.335938 11.335938 0.265625 9.546875 0.265625 C 7.722656 0.265625 6.25 -0.347656 5.125 -1.578125 C 4 -2.816406 3.4375 -4.4375 3.4375 -6.4375 L 3.4375 -18.78125 L 8.21875 -19.421875 L 8.21875 -11.8125 Z M 10.46875 -11.8125 "/></g></g><g style="fill:#14537d;fill-opacity:1;"><g transform="translate(400.41536, 717.741191)"><path style="stroke:none" d=""/></g></g><g style="fill:#14537d;fill-opacity:1;"><g transform="translate(413.993092, 717.741191)"><path style="stroke:none" d="M 46.75 -8.59375 L 51.734375 -8.59375 L 51.734375 0 L 45.9375 0 C 43.65625 0 41.671875 -0.535156 39.984375 -1.609375 C 38.234375 -0.535156 36.226562 0 33.96875 0 L 14.8125 0 C 11.625 0 9.101562 -1.070312 7.25 -3.21875 C 5.632812 -5.113281 4.828125 -7.546875 4.828125 -10.515625 L 4.828125 -14.921875 L 13.625 -19.59375 L 13.625 -10.953125 C 13.625 -10.015625 13.785156 -9.382812 14.109375 -9.0625 C 14.429688 -8.75 15.0625 -8.59375 16 -8.59375 L 33.171875 -8.59375 C 34.097656 -8.59375 34.722656 -8.75 35.046875 -9.0625 C 35.367188 -9.382812 35.53125 -10.015625 35.53125 -10.953125 L 35.53125 -29.953125 L 44.390625 -34.625 L 44.390625 -10.953125 C 44.390625 -10.015625 44.550781 -9.382812 44.875 -9.0625 C 45.195312 -8.75 45.820312 -8.59375 46.75 -8.59375 Z M 27.109375 -28.171875 C 29.679688 -27.535156 30.96875 -25.785156 30.96875 -22.921875 C 30.96875 -21.273438 30.507812 -19.976562 29.59375 -19.03125 C 28.6875 -18.082031 27.445312 -17.609375 25.875 -17.609375 L 17.0625 -17.609375 L 19.15625 -21.515625 L 25.4375 -21.515625 C 26.507812 -21.515625 27.046875 -22.070312 27.046875 -23.1875 C 27.046875 -24.507812 26.1875 -25.171875 24.46875 -25.171875 C 23.257812 -25.171875 22.207031 -24.742188 21.3125 -23.890625 L 21.3125 -27.421875 L 26.078125 -32.6875 L 31.125 -32.6875 Z M 27.109375 -28.171875 "/></g></g><g style="fill:#14537d;fill-opacity:1;"><g transform="translate(465.191322, 717.741191)"><path style="stroke:none" d="M 17.015625 -8.59375 L 22 -8.59375 L 22 0 L 16.203125 0 C 13.660156 0 11.5 -0.644531 9.71875 -1.9375 C 7.75 -0.644531 5.40625 0 2.6875 0 L -0.53125 0 L -0.53125 -8.59375 L 2.3125 -8.59375 C 3.664062 -8.59375 4.582031 -8.847656 5.0625 -9.359375 C 5.550781 -9.878906 5.796875 -10.859375 5.796875 -12.296875 L 5.796875 -29.890625 L 14.65625 -34.625 L 14.65625 -10.953125 C 14.65625 -10.015625 14.816406 -9.382812 15.140625 -9.0625 C 15.460938 -8.75 16.085938 -8.59375 17.015625 -8.59375 Z M 17.015625 -8.59375 "/></g></g><g style="fill:#14537d;fill-opacity:1;"><g transform="translate(486.658102, 717.741191)"><path style="stroke:none" d="M 19.046875 -28.71875 C 17.722656 -28.71875 16.648438 -29.132812 15.828125 -29.96875 C 15.003906 -30.8125 14.59375 -31.894531 14.59375 -33.21875 C 14.59375 -34.539062 15.003906 -35.601562 15.828125 -36.40625 C 16.648438 -37.21875 17.722656 -37.625 19.046875 -37.625 C 20.378906 -37.625 21.445312 -37.21875 22.25 -36.40625 C 23.050781 -35.601562 23.453125 -34.539062 23.453125 -33.21875 C 23.453125 -31.863281 23.050781 -30.773438 22.25 -29.953125 C 21.445312 -29.128906 20.378906 -28.71875 19.046875 -28.71875 Z M 39.015625 0 L 24.3125 0 C 22.488281 0 20.769531 -0.25 19.15625 -0.75 C 17.550781 -0.25 15.835938 0 14.015625 0 L -0.53125 0 L -0.53125 -8.59375 L 8.53125 -8.59375 C 7.675781 -9.664062 6.492188 -11.414062 4.984375 -13.84375 L 4.984375 -16.859375 C 6.628906 -19.390625 8.765625 -21.460938 11.390625 -23.078125 C 14.023438 -24.691406 16.613281 -25.5 19.15625 -25.5 C 21.664062 -25.5 24.253906 -24.675781 26.921875 -23.03125 C 29.585938 -21.382812 31.742188 -19.289062 33.390625 -16.75 L 33.390625 -13.84375 C 31.878906 -11.414062 30.675781 -9.664062 29.78125 -8.59375 L 38.90625 -8.59375 Z M 24.15625 -15.1875 C 22.46875 -16.550781 20.800781 -17.234375 19.15625 -17.234375 C 17.300781 -17.234375 15.640625 -16.550781 14.171875 -15.1875 C 15.742188 -12.6875 17.40625 -10.953125 19.15625 -9.984375 C 20.875 -10.910156 22.539062 -12.644531 24.15625 -15.1875 Z M 24.15625 -15.1875 "/></g></g><g style="fill:#14537d;fill-opacity:1;"><g transform="translate(525.137282, 717.741191)"><path style="stroke:none" d="M 29.84375 -38.15625 C 28.625 -38.15625 27.644531 -38.519531 26.90625 -39.25 C 26.175781 -39.988281 25.8125 -40.984375 25.8125 -42.234375 C 25.8125 -43.453125 26.175781 -44.421875 26.90625 -45.140625 C 27.644531 -45.859375 28.625 -46.21875 29.84375 -46.21875 C 31.0625 -46.21875 32.035156 -45.859375 32.765625 -45.140625 C 33.492188 -44.421875 33.859375 -43.453125 33.859375 -42.234375 C 33.859375 -41.023438 33.492188 -40.039062 32.765625 -39.28125 C 32.035156 -38.53125 31.0625 -38.15625 29.84375 -38.15625 Z M 25.0625 -28.71875 C 23.738281 -28.71875 22.664062 -29.132812 21.84375 -29.96875 C 21.019531 -30.8125 20.609375 -31.894531 20.609375 -33.21875 C 20.609375 -34.539062 21.019531 -35.601562 21.84375 -36.40625 C 22.664062 -37.21875 23.738281 -37.625 25.0625 -37.625 C 26.382812 -37.625 27.445312 -37.21875 28.25 -36.40625 C 29.0625 -35.601562 29.46875 -34.539062 29.46875 -33.21875 C 29.46875 -31.863281 29.0625 -30.773438 28.25 -29.953125 C 27.445312 -29.128906 26.382812 -28.71875 25.0625 -28.71875 Z M 34.71875 -28.71875 C 33.394531 -28.71875 32.320312 -29.132812 31.5 -29.96875 C 30.675781 -30.8125 30.265625 -31.894531 30.265625 -33.21875 C 30.265625 -34.539062 30.675781 -35.601562 31.5 -36.40625 C 32.320312 -37.21875 33.394531 -37.625 34.71875 -37.625 C 36.050781 -37.625 37.117188 -37.21875 37.921875 -36.40625 C 38.722656 -35.601562 39.125 -34.539062 39.125 -33.21875 C 39.125 -31.863281 38.722656 -30.773438 37.921875 -29.953125 C 37.117188 -29.128906 36.050781 -28.71875 34.71875 -28.71875 Z M -0.53125 0 L -0.53125 -8.59375 L 4.984375 -8.59375 C 5.921875 -8.59375 6.550781 -8.75 6.875 -9.0625 C 7.195312 -9.382812 7.359375 -10.015625 7.359375 -10.953125 L 7.359375 -17.609375 L 16.203125 -22.28125 L 16.203125 -10.953125 C 16.203125 -10.015625 16.363281 -9.382812 16.6875 -9.0625 C 17.007812 -8.75 17.640625 -8.59375 18.578125 -8.59375 L 23.296875 -8.59375 C 24.222656 -8.59375 24.847656 -8.75 25.171875 -9.0625 C 25.492188 -9.382812 25.65625 -10.015625 25.65625 -10.953125 L 25.65625 -18.671875 L 34.515625 -23.34375 L 34.515625 -10.953125 C 34.515625 -10.015625 34.675781 -9.382812 35 -9.0625 C 35.320312 -8.75 35.945312 -8.59375 36.875 -8.59375 L 41.65625 -8.59375 C 42.582031 -8.59375 43.207031 -8.75 43.53125 -9.0625 C 43.851562 -9.382812 44.015625 -10.015625 44.015625 -10.953125 L 44.015625 -19.75 L 52.859375 -24.421875 L 52.859375 -10.515625 C 52.859375 -7.191406 51.84375 -4.5625 49.8125 -2.625 C 48.019531 -0.976562 45.726562 -0.101562 42.9375 0 L 36.0625 0 C 33.8125 0 31.8125 -0.535156 30.0625 -1.609375 C 28.550781 -0.640625 26.742188 -0.101562 24.640625 0 L 17.765625 0 C 15.515625 0 13.507812 -0.535156 11.75 -1.609375 C 10.070312 -0.535156 8.085938 0 5.796875 0 Z M -0.53125 0 "/></g></g><g style="fill:#14537d;fill-opacity:1;"><g transform="translate(582.82923, 717.741191)"><path style="stroke:none" d=""/></g></g><g style="fill:#14537d;fill-opacity:1;"><g transform="translate(596.406961, 717.741191)"><path style="stroke:none" d="M 11.859375 -28.71875 C 10.535156 -28.71875 9.460938 -29.132812 8.640625 -29.96875 C 7.816406 -30.8125 7.40625 -31.894531 7.40625 -33.21875 C 7.40625 -34.539062 7.816406 -35.601562 8.640625 -36.40625 C 9.460938 -37.21875 10.535156 -37.625 11.859375 -37.625 C 13.179688 -37.625 14.242188 -37.21875 15.046875 -36.40625 C 15.859375 -35.601562 16.265625 -34.539062 16.265625 -33.21875 C 16.265625 -31.863281 15.859375 -30.773438 15.046875 -29.953125 C 14.242188 -29.128906 13.179688 -28.71875 11.859375 -28.71875 Z M 18.625 -8.59375 L 23.609375 -8.59375 L 23.609375 0 L 17.8125 0 C 17.351562 0 16.726562 -0.0351562 15.9375 -0.109375 C 15.039062 4.398438 12.753906 7.550781 9.078125 9.34375 C 7.460938 10.09375 5.742188 10.46875 3.921875 10.46875 C 1.484375 10.46875 -0.894531 9.820312 -3.21875 8.53125 L -3.21875 0.859375 C -1.320312 1.929688 0.5 2.46875 2.25 2.46875 C 2.96875 2.46875 3.628906 2.378906 4.234375 2.203125 C 6.347656 1.523438 7.40625 -0.28125 7.40625 -3.21875 L 7.40625 -19.75 L 16.265625 -24.421875 L 16.265625 -10.953125 C 16.265625 -10.015625 16.425781 -9.382812 16.75 -9.0625 C 17.070312 -8.75 17.695312 -8.59375 18.625 -8.59375 Z M 18.625 -8.59375 "/></g></g><g style="fill:#14537d;fill-opacity:1;"><g transform="translate(619.483722, 717.741191)"><path style="stroke:none" d="M 33.390625 -8.59375 L 37.890625 -8.59375 L 37.890625 0 L 33.328125 0 C 30.609375 0 28.40625 -0.289062 26.71875 -0.875 C 25.039062 -1.46875 23.488281 -2.484375 22.0625 -3.921875 C 17.550781 -1.304688 12.503906 0 6.921875 0 L -0.53125 0 L -0.53125 -8.59375 L 6.984375 -8.59375 C 12.304688 -8.59375 16.613281 -9.96875 19.90625 -12.71875 C 17.875 -15.757812 15.515625 -17.28125 12.828125 -17.28125 C 10.109375 -17.28125 6.890625 -15.722656 3.171875 -12.609375 L 3.171875 -20.1875 C 6.242188 -23.726562 9.800781 -25.5 13.84375 -25.5 L 13.953125 -25.5 C 16.847656 -25.5 19.65625 -24.453125 22.375 -22.359375 C 25.09375 -20.265625 27.492188 -17.320312 29.578125 -13.53125 L 29.578125 -10.515625 C 29.328125 -10.191406 28.914062 -9.710938 28.34375 -9.078125 C 29.414062 -8.753906 31.097656 -8.59375 33.390625 -8.59375 Z M 16 4.34375 C 17.320312 4.34375 18.382812 4.742188 19.1875 5.546875 C 19.988281 6.359375 20.390625 7.425781 20.390625 8.75 C 20.390625 10.101562 19.988281 11.191406 19.1875 12.015625 C 18.382812 12.835938 17.320312 13.25 16 13.25 C 14.675781 13.25 13.601562 12.828125 12.78125 11.984375 C 11.957031 11.148438 11.546875 10.070312 11.546875 8.75 C 11.546875 7.425781 11.957031 6.359375 12.78125 5.546875 C 13.601562 4.742188 14.675781 4.34375 16 4.34375 Z M 16 4.34375 "/></g></g><g style="fill:#14537d;fill-opacity:1;"><g transform="translate(656.835895, 717.741191)"><path style="stroke:none" d="M 11.640625 -28.71875 C 10.316406 -28.71875 9.242188 -29.132812 8.421875 -29.96875 C 7.597656 -30.8125 7.1875 -31.894531 7.1875 -33.21875 C 7.1875 -34.539062 7.597656 -35.601562 8.421875 -36.40625 C 9.242188 -37.21875 10.316406 -37.625 11.640625 -37.625 C 12.960938 -37.625 14.023438 -37.21875 14.828125 -36.40625 C 15.640625 -35.601562 16.046875 -34.539062 16.046875 -33.21875 C 16.046875 -31.863281 15.640625 -30.773438 14.828125 -29.953125 C 14.023438 -29.128906 12.960938 -28.71875 11.640625 -28.71875 Z M -0.53125 0 L -0.53125 -8.59375 L 4.453125 -8.59375 C 5.378906 -8.59375 6.003906 -8.75 6.328125 -9.0625 C 6.648438 -9.382812 6.8125 -10.015625 6.8125 -10.953125 L 6.8125 -19.75 L 15.671875 -24.421875 L 15.671875 -10.515625 C 15.671875 -7.117188 14.597656 -4.453125 12.453125 -2.515625 C 10.585938 -0.835938 8.191406 0 5.265625 0 Z M -0.53125 0 "/></g></g><g style="fill:#14537d;fill-opacity:1;"><g transform="translate(677.33667, 717.741191)"><path style="stroke:none" d="M 4.828125 0 L 4.828125 -29.890625 L 13.6875 -34.625 L 13.6875 0 Z M 4.828125 0 "/></g></g></g></svg>