<svg xmlns="http://www.w3.org/2000/svg" xmlns:xlink="http://www.w3.org/1999/xlink" width="500" zoomAndPan="magnify" viewBox="0 0 375 299.999988" height="400" preserveAspectRatio="xMidYMid meet" version="1.2"><defs><clipPath id="214972573a"><path d="M 0 0 L 375 0 L 375 64.511719 L 0 64.511719 Z M 0 0 "/></clipPath><clipPath id="57227a471e"><path d="M 375 29.25 L 375 35.261719 C 375 43.019531 371.917969 50.460938 366.433594 55.945312 C 360.945312 61.429688 353.507812 64.511719 345.75 64.511719 L 29.25 64.511719 C 21.492188 64.511719 14.050781 61.429688 8.566406 55.945312 C 3.082031 50.460938 0 43.019531 0 35.261719 L 0 29.25 C 0 13.097656 13.09375 0 29.25 0 L 345.75 0 C 361.902344 0 375 13.097656 375 29.25 Z M 375 29.25 "/></clipPath><clipPath id="d16403ab81"><path d="M 0 78.402344 L 375 78.402344 L 375 142.914062 L 0 142.914062 Z M 0 78.402344 "/></clipPath><clipPath id="a4b6b30c55"><path d="M 375 107.652344 L 375 113.664062 C 375 121.421875 371.917969 128.859375 366.433594 134.347656 C 360.945312 139.832031 353.507812 142.914062 345.75 142.914062 L 29.25 142.914062 C 21.492188 142.914062 14.050781 139.832031 8.566406 134.347656 C 3.082031 128.859375 0 121.421875 0 113.664062 L 0 107.652344 C 0 91.496094 13.09375 78.402344 29.25 78.402344 L 345.75 78.402344 C 361.902344 78.402344 375 91.496094 375 107.652344 Z M 375 107.652344 "/></clipPath><clipPath id="679e1bc718"><path d="M 0 156.714844 L 375 156.714844 L 375 221.226562 L 0 221.226562 Z M 0 156.714844 "/></clipPath><clipPath id="c760a8b8d8"><path d="M 375 185.964844 L 375 191.976562 C 375 199.734375 371.917969 207.171875 366.433594 212.660156 C 360.945312 218.144531 353.507812 221.226562 345.75 221.226562 L 29.25 221.226562 C 21.492188 221.226562 14.050781 218.144531 8.566406 212.660156 C 3.082031 207.171875 0 199.734375 0 191.976562 L 0 185.964844 C 0 169.808594 13.09375 156.714844 29.25 156.714844 L 345.75 156.714844 C 361.902344 156.714844 375 169.808594 375 185.964844 Z M 375 185.964844 "/></clipPath><clipPath id="4de212ac89"><path d="M 0 235.488281 L 375 235.488281 L 375 300 L 0 300 Z M 0 235.488281 "/></clipPath><clipPath id="09f2e5ef56"><path d="M 375 264.738281 L 375 270.75 C 375 278.507812 371.917969 285.949219 366.433594 291.433594 C 360.945312 296.917969 353.507812 300 345.75 300 L 29.25 300 C 21.492188 300 14.050781 296.917969 8.566406 291.433594 C 3.082031 285.949219 0 278.507812 0 270.75 L 0 264.738281 C 0 248.582031 13.09375 235.488281 29.25 235.488281 L 345.75 235.488281 C 361.902344 235.488281 375 248.582031 375 264.738281 Z M 375 264.738281 "/></clipPath></defs><g id="43bd953d6f"><g clip-rule="nonzero" clip-path="url(#214972573a)"><g clip-rule="nonzero" clip-path="url(#57227a471e)"><path style=" stroke:none;fill-rule:nonzero;fill:#2980b9;fill-opacity:1;" d="M 375 0 L 375 64.511719 L 0.0195312 64.511719 L 0.0195312 0 Z M 375 0 "/></g></g><g clip-rule="nonzero" clip-path="url(#d16403ab81)"><g clip-rule="nonzero" clip-path="url(#a4b6b30c55)"><path style=" stroke:none;fill-rule:nonzero;fill:#2980b9;fill-opacity:1;" d="M 375 78.402344 L 375 142.914062 L 0.0195312 142.914062 L 0.0195312 78.402344 Z M 375 78.402344 "/></g></g><g clip-rule="nonzero" clip-path="url(#679e1bc718)"><g clip-rule="nonzero" clip-path="url(#c760a8b8d8)"><path style=" stroke:none;fill-rule:nonzero;fill:#2980b9;fill-opacity:1;" d="M 375 156.714844 L 375 221.226562 L 0.0195312 221.226562 L 0.0195312 156.714844 Z M 375 156.714844 "/></g></g><g clip-rule="nonzero" clip-path="url(#4de212ac89)"><g clip-rule="nonzero" clip-path="url(#09f2e5ef56)"><path style=" stroke:none;fill-rule:nonzero;fill:#2980b9;fill-opacity:1;" d="M 375 235.488281 L 375 300 L 0.0195312 300 L 0.0195312 235.488281 Z M 375 235.488281 "/></g></g></g></svg>