<svg xmlns="http://www.w3.org/2000/svg" xmlns:xlink="http://www.w3.org/1999/xlink" width="500" zoomAndPan="magnify" viewBox="0 0 375 299.999988" height="400" preserveAspectRatio="xMidYMid meet" version="1.2"><defs><clipPath id="31eab89716"><path d="M 0 60.847656 L 80.640625 60.847656 L 80.640625 239.453125 L 0 239.453125 Z M 0 60.847656 "/></clipPath><clipPath id="362ce279aa"><path d="M 29.25 60.847656 L 51.390625 60.847656 C 59.148438 60.847656 66.589844 63.929688 72.074219 69.414062 C 77.558594 74.902344 80.640625 82.339844 80.640625 90.097656 L 80.640625 209.902344 C 80.640625 217.660156 77.558594 225.097656 72.074219 230.585938 C 66.589844 236.070312 59.148438 239.152344 51.390625 239.152344 L 29.25 239.152344 C 13.09375 239.152344 0 226.054688 0 209.902344 L 0 90.097656 C 0 73.945312 13.09375 60.847656 29.25 60.847656 Z M 29.25 60.847656 "/></clipPath><clipPath id="f5e10a9da1"><path d="M 98 60.847656 L 178.640625 60.847656 L 178.640625 239.453125 L 98 239.453125 Z M 98 60.847656 "/></clipPath><clipPath id="e1f5f0e22e"><path d="M 127.25 60.847656 L 149.390625 60.847656 C 157.148438 60.847656 164.589844 63.929688 170.074219 69.414062 C 175.558594 74.902344 178.640625 82.339844 178.640625 90.097656 L 178.640625 209.902344 C 178.640625 217.660156 175.558594 225.097656 170.074219 230.585938 C 164.589844 236.070312 157.148438 239.152344 149.390625 239.152344 L 127.25 239.152344 C 111.097656 239.152344 98 226.054688 98 209.902344 L 98 90.097656 C 98 73.945312 111.097656 60.847656 127.25 60.847656 Z M 127.25 60.847656 "/></clipPath><clipPath id="b4caedd1cc"><path d="M 195.890625 60.847656 L 276.53125 60.847656 L 276.53125 239.453125 L 195.890625 239.453125 Z M 195.890625 60.847656 "/></clipPath><clipPath id="65f7d44279"><path d="M 225.140625 60.847656 L 247.28125 60.847656 C 255.039062 60.847656 262.480469 63.929688 267.964844 69.414062 C 273.449219 74.902344 276.53125 82.339844 276.53125 90.097656 L 276.53125 209.902344 C 276.53125 217.660156 273.449219 225.097656 267.964844 230.585938 C 262.480469 236.070312 255.039062 239.152344 247.28125 239.152344 L 225.140625 239.152344 C 208.988281 239.152344 195.890625 226.054688 195.890625 209.902344 L 195.890625 90.097656 C 195.890625 73.945312 208.988281 60.847656 225.140625 60.847656 Z M 225.140625 60.847656 "/></clipPath><clipPath id="2ea0b1337d"><path d="M 294.359375 60.847656 L 375 60.847656 L 375 239.453125 L 294.359375 239.453125 Z M 294.359375 60.847656 "/></clipPath><clipPath id="42e7f6334e"><path d="M 323.609375 60.847656 L 345.75 60.847656 C 353.507812 60.847656 360.949219 63.929688 366.433594 69.414062 C 371.917969 74.902344 375 82.339844 375 90.097656 L 375 209.902344 C 375 217.660156 371.917969 225.097656 366.433594 230.585938 C 360.949219 236.070312 353.507812 239.152344 345.75 239.152344 L 323.609375 239.152344 C 307.457031 239.152344 294.359375 226.054688 294.359375 209.902344 L 294.359375 90.097656 C 294.359375 73.945312 307.457031 60.847656 323.609375 60.847656 Z M 323.609375 60.847656 "/></clipPath></defs><g id="af83837422"><g clip-rule="nonzero" clip-path="url(#31eab89716)"><g clip-rule="nonzero" clip-path="url(#362ce279aa)"><path style=" stroke:none;fill-rule:nonzero;fill:#2980b9;fill-opacity:1;" d="M 0 60.847656 L 80.640625 60.847656 L 80.640625 239.140625 L 0 239.140625 Z M 0 60.847656 "/></g></g><g clip-rule="nonzero" clip-path="url(#f5e10a9da1)"><g clip-rule="nonzero" clip-path="url(#e1f5f0e22e)"><path style=" stroke:none;fill-rule:nonzero;fill:#2980b9;fill-opacity:1;" d="M 98 60.847656 L 178.640625 60.847656 L 178.640625 239.140625 L 98 239.140625 Z M 98 60.847656 "/></g></g><g clip-rule="nonzero" clip-path="url(#b4caedd1cc)"><g clip-rule="nonzero" clip-path="url(#65f7d44279)"><path style=" stroke:none;fill-rule:nonzero;fill:#2980b9;fill-opacity:1;" d="M 195.890625 60.847656 L 276.53125 60.847656 L 276.53125 239.140625 L 195.890625 239.140625 Z M 195.890625 60.847656 "/></g></g><g clip-rule="nonzero" clip-path="url(#2ea0b1337d)"><g clip-rule="nonzero" clip-path="url(#42e7f6334e)"><path style=" stroke:none;fill-rule:nonzero;fill:#2980b9;fill-opacity:1;" d="M 294.359375 60.847656 L 375 60.847656 L 375 239.140625 L 294.359375 239.140625 Z M 294.359375 60.847656 "/></g></g></g></svg>