<svg xmlns="http://www.w3.org/2000/svg" xmlns:xlink="http://www.w3.org/1999/xlink" width="500" zoomAndPan="magnify" viewBox="0 0 375 299.999988" height="400" preserveAspectRatio="xMidYMid meet" version="1.2"><defs><clipPath id="abb8b987d9"><path d="M 0 30 L 180.875 30 L 180.875 145.472656 L 0 145.472656 Z M 0 30 "/></clipPath><clipPath id="14516a6cdf"><path d="M 29.25 30 L 151.230469 30 C 158.988281 30 166.429688 33.082031 171.914062 38.566406 C 177.398438 44.050781 180.480469 51.492188 180.480469 59.25 L 180.480469 116.222656 C 180.480469 123.976562 177.398438 131.417969 171.914062 136.902344 C 166.429688 142.390625 158.988281 145.472656 151.230469 145.472656 L 29.25 145.472656 C 13.09375 145.472656 0 132.375 0 116.222656 L 0 59.25 C 0 43.09375 13.09375 30 29.25 30 Z M 29.25 30 "/></clipPath><clipPath id="8237e595f7"><path d="M 0 154.527344 L 180.875 154.527344 L 180.875 270 L 0 270 Z M 0 154.527344 "/></clipPath><clipPath id="a6e0028d9c"><path d="M 29.25 154.527344 L 151.230469 154.527344 C 158.988281 154.527344 166.429688 157.609375 171.914062 163.097656 C 177.398438 168.582031 180.480469 176.023438 180.480469 183.777344 L 180.480469 240.75 C 180.480469 248.507812 177.398438 255.949219 171.914062 261.433594 C 166.429688 266.917969 158.988281 270 151.230469 270 L 29.25 270 C 13.09375 270 0 256.902344 0 240.75 L 0 183.777344 C 0 167.625 13.09375 154.527344 29.25 154.527344 Z M 29.25 154.527344 "/></clipPath><clipPath id="9449a104e4"><path d="M 194.519531 154.527344 L 375 154.527344 L 375 270 L 194.519531 270 Z M 194.519531 154.527344 "/></clipPath><clipPath id="4e202a4aa5"><path d="M 223.769531 154.527344 L 345.75 154.527344 C 353.507812 154.527344 360.949219 157.609375 366.433594 163.097656 C 371.917969 168.582031 375 176.023438 375 183.777344 L 375 240.75 C 375 248.507812 371.917969 255.949219 366.433594 261.433594 C 360.949219 266.917969 353.507812 270 345.75 270 L 223.769531 270 C 207.613281 270 194.519531 256.902344 194.519531 240.75 L 194.519531 183.777344 C 194.519531 167.625 207.613281 154.527344 223.769531 154.527344 Z M 223.769531 154.527344 "/></clipPath><clipPath id="01044ab985"><path d="M 194.519531 30 L 375 30 L 375 145.472656 L 194.519531 145.472656 Z M 194.519531 30 "/></clipPath><clipPath id="61b6149ee9"><path d="M 223.769531 30 L 345.75 30 C 353.507812 30 360.949219 33.082031 366.433594 38.566406 C 371.917969 44.050781 375 51.492188 375 59.25 L 375 116.222656 C 375 123.976562 371.917969 131.417969 366.433594 136.902344 C 360.949219 142.390625 353.507812 145.472656 345.75 145.472656 L 223.769531 145.472656 C 207.613281 145.472656 194.519531 132.375 194.519531 116.222656 L 194.519531 59.25 C 194.519531 43.09375 207.613281 30 223.769531 30 Z M 223.769531 30 "/></clipPath></defs><g id="401af3e6fd"><g clip-rule="nonzero" clip-path="url(#abb8b987d9)"><g clip-rule="nonzero" clip-path="url(#14516a6cdf)"><path style=" stroke:none;fill-rule:nonzero;fill:#2980b9;fill-opacity:1;" d="M 0 30 L 180.421875 30 L 180.421875 145.472656 L 0 145.472656 Z M 0 30 "/></g></g><g clip-rule="nonzero" clip-path="url(#8237e595f7)"><g clip-rule="nonzero" clip-path="url(#a6e0028d9c)"><path style=" stroke:none;fill-rule:nonzero;fill:#2980b9;fill-opacity:1;" d="M 0 154.527344 L 180.421875 154.527344 L 180.421875 270 L 0 270 Z M 0 154.527344 "/></g></g><g clip-rule="nonzero" clip-path="url(#9449a104e4)"><g clip-rule="nonzero" clip-path="url(#4e202a4aa5)"><path style=" stroke:none;fill-rule:nonzero;fill:#2980b9;fill-opacity:1;" d="M 194.519531 154.527344 L 374.941406 154.527344 L 374.941406 270 L 194.519531 270 Z M 194.519531 154.527344 "/></g></g><g clip-rule="nonzero" clip-path="url(#01044ab985)"><g clip-rule="nonzero" clip-path="url(#61b6149ee9)"><path style=" stroke:none;fill-rule:nonzero;fill:#2980b9;fill-opacity:1;" d="M 194.519531 30 L 374.941406 30 L 374.941406 145.472656 L 194.519531 145.472656 Z M 194.519531 30 "/></g></g></g></svg>